<?xml version="1.0" encoding="UTF-8" standalone="no"?>
<!-- Created with Inkscape (http://www.inkscape.org/) -->

<svg
   xmlns:dc="http://purl.org/dc/elements/1.1/"
   xmlns:cc="http://creativecommons.org/ns#"
   xmlns:rdf="http://www.w3.org/1999/02/22-rdf-syntax-ns#"
   xmlns:svg="http://www.w3.org/2000/svg"
   xmlns="http://www.w3.org/2000/svg"
   xmlns:sodipodi="http://sodipodi.sourceforge.net/DTD/sodipodi-0.dtd"
   xmlns:inkscape="http://www.inkscape.org/namespaces/inkscape"
   id="svg3411"
   version="1.1"
   inkscape:version="0.48.1 "
   width="447.5"
   height="557.5"
   xml:space="preserve"
   sodipodi:docname="bus.pdf"><metadata
     id="metadata3417"><rdf:RDF><cc:Work
         rdf:about=""><dc:format>image/svg+xml</dc:format><dc:type
           rdf:resource="http://purl.org/dc/dcmitype/StillImage" /><dc:title></dc:title></cc:Work></rdf:RDF></metadata><defs
     id="defs3415" /><sodipodi:namedview
     pagecolor="#ffffff"
     bordercolor="#666666"
     borderopacity="1"
     objecttolerance="10"
     gridtolerance="10"
     guidetolerance="10"
     inkscape:pageopacity="0"
     inkscape:pageshadow="2"
     inkscape:window-width="640"
     inkscape:window-height="480"
     id="namedview3413"
     showgrid="false"
     inkscape:zoom="0.52197309"
     inkscape:cx="223.75"
     inkscape:cy="278.75"
     inkscape:window-x="607"
     inkscape:window-y="111"
     inkscape:window-maximized="0"
     inkscape:current-layer="g3419" /><g
     id="g3419"
     inkscape:groupmode="layer"
     inkscape:label="bus"
     transform="matrix(1.25,0,0,-1.25,0,557.5)"><g
       id="g3421"
       transform="scale(0.24,0.24)"><path
         d="m 754.25,1853.25 c -167.812,0.13 -399.453,-47.8 -495,-88 -96.152,-39.68 -160.0547,-79.61 -180,-179 l -72,-554 0,-763 124,0 0,-119 c -0.105,-146.08203 213.305,-146.08203 213,0 l 0,119 805,0 0,-119 c 0.15,-146.08203 213.56,-146.08203 214,0 l 0,119 123,0 0,763 -72,554 c -19.49,99.39 -83.39,139.32 -179,179 -96.09,40.2 -327.73,88.13 -495,88"
         style="fill:#000000;fill-opacity:1;fill-rule:nonzero;stroke:none"
         id="path3423" /><path
         d="m 1256.25,508.25 c 56.3,0.445 102.14,46.289 102,103 0.14,56.355 -45.7,102.195 -102,102 -56.76,0.195 -102.6,-45.645 -103,-102 0.4,-56.711 46.24,-102.555 103,-103"
         style="fill:#ffffff;fill-opacity:1;fill-rule:nonzero;stroke:none"
         id="path3425" /><path
         d="m 238.25,508.25 c -56.848,0.445 -102.68,46.289 -103,103 0.32,56.355 46.152,102.195 103,102 56.223,0.195 102.059,-45.645 102,-102 0.059,-56.711 -45.777,-102.555 -102,-103"
         style="fill:#ffffff;fill-opacity:1;fill-rule:nonzero;stroke:none"
         id="path3427" /><path
         d="m 739.25,1623.25 -297,0 c -59.496,0.49 -59.496,90.35 0,90 l 609,0 c 59.95,0.35 59.95,-89.51 0,-90 l -312,0"
         style="fill:#ffffff;fill-opacity:1;fill-rule:nonzero;stroke:none"
         id="path3429" /><path
         d="m 739.25,1533.25 -458,0 c -63.375,-0.24 -79.91,-32.39 -88,-81 l -56,-402 c -4.758,-38.1 6.371,-76.293 60,-76 l 1100,0 c 53.09,-0.293 64.21,37.9 59,76 l -56,402 c -7.63,48.61 -24.17,80.76 -87,81 l -474,0"
         style="fill:#ffffff;fill-opacity:1;fill-rule:nonzero;stroke:none"
         id="path3431" /></g></g></svg>